<svg xmlns="http://www.w3.org/2000/svg" width="32" height="32" viewBox="0 0 32 32" fill="none"><metadata><rdf:RDF xmlns:rdf="http://www.w3.org/1999/02/22-rdf-syntax-ns#" xmlns:dc="http://purl.org/dc/elements/1.1/"><rdf:Description><dc:creator>RealFaviconGenerator</dc:creator><dc:source>https://realfavicongenerator.net</dc:source></rdf:Description></rdf:RDF></metadata><rect width="32" height="32" fill="#172940"></rect><path d="M14.9333 16.0002C14.9333 14.8172 14.5167 13.8071 13.6833 12.9701C12.85 12.133 11.8444 11.7145 10.6667 11.7145C9.48889 11.7145 8.48333 12.133 7.65 12.9701C6.81667 13.8071 6.4 14.8172 6.4 16.0002C6.4 17.1832 6.81667 18.1933 7.65 19.0303C8.48333 19.8674 9.48889 20.2859 10.6667 20.2859C11.8444 20.2859 12.85 19.8674 13.6833 19.0303C14.5167 18.1933 14.9333 17.1832 14.9333 16.0002ZM27.7333 24.5716C27.7333 23.9913 27.5222 23.4891 27.1 23.0649C26.6778 22.6408 26.1778 22.4288 25.6 22.4288C25.0222 22.4288 24.5222 22.6408 24.1 23.0649C23.6778 23.4891 23.4667 23.9913 23.4667 24.5716C23.4667 25.1632 23.675 25.6682 24.0917 26.0867C24.5083 26.5052 25.0111 26.7145 25.6 26.7145C26.1889 26.7145 26.6917 26.5052 27.1083 26.0867C27.525 25.6682 27.7333 25.1632 27.7333 24.5716ZM27.7333 7.42878C27.7333 6.84842 27.5222 6.34619 27.1 5.92208C26.6778 5.49798 26.1778 5.28592 25.6 5.28592C25.0222 5.28592 24.5222 5.49798 24.1 5.92208C23.6778 6.34619 23.4667 6.84842 23.4667 7.42878C23.4667 8.0203 23.675 8.52532 24.0917 8.94385C24.5083 9.36238 25.0111 9.57164 25.6 9.57164C26.1889 9.57164 26.6917 9.36238 27.1083 8.94385C27.525 8.52532 27.7333 8.0203 27.7333 7.42878ZM21.3333 14.4768V17.5739C21.3333 17.6855 21.2944 17.7943 21.2167 17.9003C21.1389 18.0063 21.05 18.0649 20.95 18.0761L18.3667 18.4779C18.2444 18.8685 18.0667 19.2926 17.8333 19.7502C18.2111 20.2859 18.7111 20.9277 19.3333 21.6754C19.4111 21.7982 19.45 21.9098 19.45 22.0103C19.45 22.1442 19.4111 22.2502 19.3333 22.3283C19.0778 22.6632 18.6194 23.1626 17.9583 23.8267C17.2972 24.4907 16.8611 24.8228 16.65 24.8228C16.5278 24.8228 16.4111 24.7837 16.3 24.7056L14.3833 23.1989C13.9722 23.4109 13.5444 23.5839 13.1 23.7178C12.9778 24.9232 12.85 25.7882 12.7167 26.3127C12.6389 26.5806 12.4722 26.7145 12.2167 26.7145H9.11667C8.99444 26.7145 8.88333 26.6726 8.78333 26.5889C8.68333 26.5052 8.62778 26.4076 8.61667 26.296L8.23333 23.7346C7.85556 23.623 7.43889 23.45 6.98333 23.2156L5.01667 24.7056C4.93889 24.7837 4.82778 24.8228 4.68333 24.8228C4.56111 24.8228 4.44444 24.7781 4.33333 24.6888C2.73333 23.2045 1.93333 22.3116 1.93333 22.0103C1.93333 21.9098 1.97222 21.8038 2.05 21.6922C2.16111 21.5359 2.38889 21.2402 2.73333 20.8049C3.07778 20.3696 3.33889 20.0292 3.51667 19.7837C3.26111 19.2926 3.06667 18.835 2.93333 18.4109L0.4 18.0091C0.288889 17.998 0.194444 17.945 0.116667 17.8501C0.0388889 17.7552 0 17.6464 0 17.5236V14.4265C0 14.3149 0.0388889 14.2061 0.116667 14.1001C0.194444 13.9941 0.283333 13.9355 0.383333 13.9243L2.96667 13.5225C3.08889 13.1319 3.26667 12.7078 3.5 12.2502C3.12222 11.7145 2.62222 11.0728 2 10.325C1.92222 10.2022 1.88333 10.0906 1.88333 9.99017C1.88333 9.85624 1.92222 9.74463 2 9.65534C2.24444 9.32052 2.7 8.82387 3.36667 8.16539C4.03333 7.50691 4.47222 7.17767 4.68333 7.17767C4.80556 7.17767 4.92222 7.21673 5.03333 7.29485L6.95 8.80155C7.32778 8.60066 7.75556 8.42208 8.23333 8.26583C8.35556 7.06048 8.48333 6.2011 8.61667 5.68771C8.69444 5.41985 8.86111 5.28592 9.11667 5.28592H12.2167C12.3389 5.28592 12.45 5.32778 12.55 5.41148C12.65 5.49519 12.7056 5.59284 12.7167 5.70445L13.1 8.26583C13.4778 8.37744 13.8944 8.55043 14.35 8.78481L16.3167 7.29485C16.4056 7.21673 16.5167 7.17767 16.65 7.17767C16.7722 7.17767 16.8889 7.22231 17 7.31159C18.6 8.79597 19.4 9.68883 19.4 9.99017C19.4 10.0795 19.3611 10.1855 19.2833 10.3082C19.15 10.4868 18.9167 10.7882 18.5833 11.2123C18.25 11.6364 18 11.9712 17.8333 12.2167C18.0889 12.7524 18.2778 13.21 18.4 13.5895L20.9333 13.9745C21.0444 13.9969 21.1389 14.0555 21.2167 14.1503C21.2944 14.2452 21.3333 14.354 21.3333 14.4768ZM32 23.3998V25.7435C32 25.9221 31.1722 26.0951 29.5167 26.2625C29.3833 26.5638 29.2167 26.854 29.0167 27.133C29.5833 28.3942 29.8667 29.1643 29.8667 29.4433C29.8667 29.4879 29.8444 29.527 29.8 29.5605C28.4444 30.3529 27.7556 30.7491 27.7333 30.7491C27.6444 30.7491 27.3889 30.4868 26.9667 29.9623C26.5444 29.4377 26.2556 29.0582 26.1 28.8239C25.8778 28.8462 25.7111 28.8574 25.6 28.8574C25.4889 28.8574 25.3222 28.8462 25.1 28.8239C24.9444 29.0582 24.6556 29.4377 24.2333 29.9623C23.8111 30.4868 23.5556 30.7491 23.4667 30.7491C23.4444 30.7491 22.7556 30.3529 21.4 29.5605C21.3556 29.527 21.3333 29.4879 21.3333 29.4433C21.3333 29.1643 21.6167 28.3942 22.1833 27.133C21.9833 26.854 21.8167 26.5638 21.6833 26.2625C20.0278 26.0951 19.2 25.9221 19.2 25.7435V23.3998C19.2 23.2212 20.0278 23.0482 21.6833 22.8808C21.8278 22.5571 21.9944 22.267 22.1833 22.0103C21.6167 20.7491 21.3333 19.979 21.3333 19.7C21.3333 19.6553 21.3556 19.6163 21.4 19.5828C21.4444 19.5605 21.6389 19.4489 21.9833 19.248C22.3278 19.0471 22.6556 18.8574 22.9667 18.6788C23.2778 18.5002 23.4444 18.4109 23.4667 18.4109C23.5556 18.4109 23.8111 18.6704 24.2333 19.1894C24.6556 19.7084 24.9444 20.085 25.1 20.3194C25.3222 20.2971 25.4889 20.2859 25.6 20.2859C25.7111 20.2859 25.8778 20.2971 26.1 20.3194C26.6667 19.527 27.1778 18.902 27.6333 18.4444L27.7333 18.4109C27.7778 18.4109 28.4667 18.8015 29.8 19.5828C29.8444 19.6163 29.8667 19.6553 29.8667 19.7C29.8667 19.979 29.5833 20.7491 29.0167 22.0103C29.2056 22.267 29.3722 22.5571 29.5167 22.8808C31.1722 23.0482 32 23.2212 32 23.3998ZM32 6.25691V8.60066C32 8.77923 31.1722 8.95222 29.5167 9.11963C29.3833 9.42097 29.2167 9.71115 29.0167 9.99017C29.5833 11.2513 29.8667 12.0214 29.8667 12.3004C29.8667 12.3451 29.8444 12.3841 29.8 12.4176C28.4444 13.21 27.7556 13.6062 27.7333 13.6062C27.6444 13.6062 27.3889 13.344 26.9667 12.8194C26.5444 12.2949 26.2556 11.9154 26.1 11.681C25.8778 11.7033 25.7111 11.7145 25.6 11.7145C25.4889 11.7145 25.3222 11.7033 25.1 11.681C24.9444 11.9154 24.6556 12.2949 24.2333 12.8194C23.8111 13.344 23.5556 13.6062 23.4667 13.6062C23.4444 13.6062 22.7556 13.21 21.4 12.4176C21.3556 12.3841 21.3333 12.3451 21.3333 12.3004C21.3333 12.0214 21.6167 11.2513 22.1833 9.99017C21.9833 9.71115 21.8167 9.42097 21.6833 9.11963C20.0278 8.95222 19.2 8.77923 19.2 8.60066V6.25691C19.2 6.07833 20.0278 5.90534 21.6833 5.73793C21.8278 5.41427 21.9944 5.12409 22.1833 4.8674C21.6167 3.60624 21.3333 2.83615 21.3333 2.55713C21.3333 2.51249 21.3556 2.47342 21.4 2.43994C21.4444 2.41762 21.6389 2.30601 21.9833 2.10512C22.3278 1.90423 22.6556 1.7145 22.9667 1.53592C23.2778 1.35735 23.4444 1.26807 23.4667 1.26807C23.5556 1.26807 23.8111 1.52755 24.2333 2.04653C24.6556 2.5655 24.9444 2.94217 25.1 3.17655C25.3222 3.15423 25.4889 3.14307 25.6 3.14307C25.7111 3.14307 25.8778 3.15423 26.1 3.17655C26.6667 2.38414 27.1778 1.75914 27.6333 1.30155L27.7333 1.26807C27.7778 1.26807 28.4667 1.65869 29.8 2.43994C29.8444 2.47342 29.8667 2.51249 29.8667 2.55713C29.8667 2.83615 29.5833 3.60624 29.0167 4.8674C29.2056 5.12409 29.3722 5.41427 29.5167 5.73793C31.1722 5.90534 32 6.07833 32 6.25691Z" fill="#FFC105"></path></svg>